<?xml version="1.0" standalone="no"?>
<!DOCTYPE svg PUBLIC "-//W3C//DTD SVG 20010904//EN"
 "http://www.w3.org/TR/2001/REC-SVG-20010904/DTD/svg10.dtd">
<svg version="1.0" xmlns="http://www.w3.org/2000/svg"
 width="257.000000pt" height="257.000000pt" viewBox="0 0 257.000000 257.000000"
 preserveAspectRatio="xMidYMid meet">
<metadata>
Created by potrace 1.11, written by Peter Selinger 2001-2013
</metadata>
<g transform="translate(0.000000,257.000000) scale(0.100000,-0.100000)"
fill="#000000" stroke="none">
<path d="M1246 2544 c-21 -20 -20 -31 2 -37 13 -4 13 -5 -4 -6 -27 -1 -55 -32
-36 -38 8 -3 12 -26 12 -69 0 -36 4 -64 10 -64 15 0 13 137 -2 143 -7 2 2 7
20 11 34 8 118 -2 95 -11 -17 -6 -18 -143 -2 -143 7 0 10 23 7 65 -2 48 1 66
11 70 21 8 -6 35 -38 36 -25 1 -25 1 -3 7 21 7 22 8 7 30 -19 26 -57 29 -79 6z"/>
<path d="M1271 2410 c0 -49 3 -70 12 -70 10 0 13 52 8 133 -1 4 -5 7 -10 7 -5
0 -9 -31 -10 -70z"/>
<path d="M1201 2298 c-42 -28 -69 -71 -75 -121 -2 -20 -3 -37 -1 -37 2 0 33 7
69 15 67 16 143 14 206 -5 49 -14 49 -14 44 27 -11 85 -65 135 -151 141 -48 3
-64 0 -92 -20z"/>
<path d="M1181 2124 c-30 -8 -84 -34 -120 -59 -153 -101 -262 -262 -303 -445
-17 -76 -24 -195 -11 -187 5 3 32 9 59 12 27 3 58 8 69 10 11 2 52 7 90 10 39
4 90 8 115 11 52 5 383 5 420 0 14 -2 54 -7 90 -10 36 -4 76 -9 90 -10 14 -2
50 -7 80 -11 30 -3 58 -9 63 -12 15 -9 2 141 -18 217 -32 124 -110 256 -202
341 -139 130 -276 173 -422 133z"/>
<path d="M1120 1437 c-3 -3 -48 -8 -100 -11 -98 -7 -126 -10 -220 -26 -30 -6
-75 -13 -100 -16 -79 -11 -99 -37 -47 -61 22 -10 23 -16 22 -127 -1 -87 2
-116 12 -116 7 0 56 7 110 15 259 40 752 40 982 0 13 -2 44 -7 68 -11 l43 -6
0 120 c0 111 1 120 20 125 24 6 38 36 21 46 -11 7 -164 32 -276 46 -22 3 -58
7 -80 10 -53 7 -449 17 -455 12z m119 -56 c11 -7 15 -33 15 -103 l1 -93 -47
-3 -47 -3 2 92 c3 76 7 94 22 105 22 16 34 17 54 5z m149 -15 c14 -18 18 -41
17 -102 l0 -79 -47 -3 -47 -3 2 93 c1 51 5 98 9 103 12 19 47 14 66 -9z m-427
-10 c7 -61 3 -186 -6 -187 -5 0 -27 -2 -48 -4 l-37 -4 2 87 c1 74 5 90 24 109
22 22 63 22 65 -1z m145 13 c7 -12 9 -177 3 -184 -2 -2 -23 -5 -47 -8 l-42 -4
0 81 c0 58 5 88 16 104 16 23 58 30 70 11z m428 -11 c11 -16 16 -46 16 -103
l0 -81 -45 0 c-43 1 -45 2 -46 31 -2 78 1 157 6 165 11 18 54 10 69 -12z m153
-10 c6 -7 11 -53 11 -101 l0 -88 -41 6 c-23 4 -44 8 -47 10 -5 3 -5 162 -1
187 4 22 57 12 78 -14z m-859 -101 l-3 -92 -40 -6 c-22 -4 -41 -6 -43 -5 -6 6
-3 163 4 179 9 24 44 37 67 25 15 -8 17 -21 15 -101z m997 74 c7 -24 9 -157 2
-168 -4 -6 -23 -7 -44 -4 l-38 6 -3 90 c-2 74 0 92 14 102 19 14 61 -1 69 -26z"/>
<path d="M1127 1094 c-1 -1 -53 -4 -116 -8 -177 -10 -448 -53 -476 -76 -22
-18 -18 -47 7 -61 18 -10 20 -9 15 5 -7 18 2 25 40 31 16 2 51 8 78 14 28 5
77 13 110 16 33 4 69 9 80 11 120 24 803 23 844 0 3 -2 33 -7 66 -10 33 -4 98
-14 145 -24 69 -14 85 -20 84 -34 -2 -19 5 -22 22 -10 18 12 23 39 10 57 -11
16 -35 22 -191 49 -91 15 -204 27 -310 32 -108 5 -404 11 -408 8z"/>
<path d="M1157 984 c-1 -1 -54 -4 -118 -8 -135 -7 -191 -13 -364 -41 -143 -22
-179 -41 -139 -74 18 -15 19 -32 19 -338 0 -178 1 -323 2 -323 1 0 26 9 55 21
108 43 281 90 375 104 23 3 57 8 75 11 101 16 400 10 513 -10 17 -3 47 -8 69
-11 55 -9 219 -57 299 -88 l67 -26 0 27 c1 15 1 161 1 324 0 247 3 297 15 302
8 3 14 16 14 30 0 21 -6 25 -42 32 -24 4 -45 8 -48 9 -3 1 -27 5 -55 10 -27 4
-59 9 -70 11 -11 2 -45 6 -75 10 -30 3 -66 7 -80 10 -35 7 -507 23 -513 18z
m82 -74 c17 -8 18 -28 16 -247 -1 -131 -2 -240 -3 -243 -2 -5 -49 -6 -77 -2
-7 1 -10 82 -10 233 1 230 1 231 24 250 27 22 27 22 50 9z m147 -11 c17 -19
19 -40 19 -254 l0 -233 -40 3 c-22 1 -43 3 -47 4 -3 0 -6 109 -6 242 1 235 1
241 22 249 30 12 31 12 52 -11z m-302 5 c14 -5 16 -37 16 -253 l0 -246 -45 -3
c-38 -2 -45 0 -45 15 -1 10 0 117 0 238 1 187 3 222 17 237 17 19 31 22 57 12z
m460 -13 c16 -17 18 -46 18 -253 l1 -233 -44 0 -44 0 -3 244 c-2 254 -1 260
39 261 9 0 24 -9 33 -19z m-614 -12 c8 -11 5 -487 -2 -495 -4 -3 -24 -8 -46
-11 l-39 -5 0 243 c0 228 1 245 19 265 19 21 55 22 68 3z m787 -11 c7 -8 11
-101 11 -255 -1 -241 -1 -243 -22 -242 -11 1 -32 4 -46 8 l-25 7 0 248 c0 239
1 249 20 256 21 8 45 0 62 -22z m-961 -6 c8 -5 12 -85 12 -264 l0 -256 -43
-11 c-24 -6 -45 -11 -47 -11 -2 0 -3 117 -3 261 0 246 1 262 20 275 21 15 44
18 61 6z m1119 -6 c18 -13 19 -30 20 -275 l0 -262 -22 6 c-12 3 -33 9 -46 14
l-24 9 0 254 c0 173 4 255 11 260 17 12 40 9 61 -6z"/>
<path d="M1120 293 c-220 -22 -431 -84 -635 -184 -66 -33 -134 -71 -150 -84
-29 -23 -28 -23 48 6 134 51 430 120 582 135 109 10 219 17 300 17 100 1 326
-11 347 -17 7 -3 38 -7 68 -11 122 -13 481 -103 542 -136 34 -18 31 -2 -4 19
-198 119 -443 209 -650 238 -16 2 -43 7 -60 10 -38 6 -337 12 -388 7z"/>
</g>
</svg>
